# xmcd
#
# Track frame offsets: 
#        150
#        12105
#        25872
#        37244
#        50808
#        66090
#        75741
#        90128
#        101369
#        113018
#        126490
#        138238
#
# Disc length: 2033 seconds
#
# Revision: 0
# Processed by: cddbd v1.5.2PL0 Copyright (c) Steve Scherf et al.
# Submitted via: ExactAudioCopy v0.99pb5
#
DISCID=9607ef0c
DTITLE=Christy Lane - Christy Lane Is The Name
DYEAR=1977
DGENRE=Country
TTITLE0=Let Me Down Easy
TTITLE1=Midnight Blue
TTITLE2=By The Way
TTITLE3=Shake Me, I Rattle
TTITLE4=Take Your Baby Home
TTITLE5=I'm Gonna' Love You Anyway
TTITLE6=I Can't Tell You
TTITLE7=Trying To Forget About You
TTITLE8=Love's Gonna' Shine On Me Again
TTITLE9=Take Your Love Away
TTITLE10=Penny Arcade
TTITLE11=Never Think I Don't Still Love You
EXTD=
EXTT0=
EXTT1=
EXTT2=
EXTT3=
EXTT4=
EXTT5=
EXTT6=
EXTT7=
EXTT8=
EXTT9=
EXTT10=
EXTT11=
PLAYORDER=
